<mxfile host="app.diagrams.net" modified="2021-03-23T06:57:42.683Z" agent="5.0 (Macintosh; Intel Mac OS X 11_0_1) AppleWebKit/537.36 (KHTML, like Gecko) Chrome/89.0.4389.90 Safari/537.36" etag="cFxofM1zUQMTG49D5sXN" version="14.4.7" type="github">
  <diagram id="mpsuEEa_qqHVP0tXSggL" name="Page-1">
    <mxGraphModel dx="946" dy="614" grid="1" gridSize="10" guides="1" tooltips="1" connect="1" arrows="1" fold="1" page="1" pageScale="1" pageWidth="827" pageHeight="1169" math="0" shadow="0">
      <root>
        <mxCell id="0" />
        <mxCell id="1" parent="0" />
        <mxCell id="rKvsoHjesG3bYA3_DGz0-5" style="edgeStyle=orthogonalEdgeStyle;rounded=0;orthogonalLoop=1;jettySize=auto;html=1;exitX=1;exitY=0.5;exitDx=0;exitDy=0;entryX=-0.025;entryY=0.094;entryDx=0;entryDy=0;entryPerimeter=0;fontSize=16;" edge="1" parent="1" source="rKvsoHjesG3bYA3_DGz0-1" target="rKvsoHjesG3bYA3_DGz0-4">
          <mxGeometry relative="1" as="geometry" />
        </mxCell>
        <mxCell id="rKvsoHjesG3bYA3_DGz0-10" style="edgeStyle=orthogonalEdgeStyle;rounded=0;orthogonalLoop=1;jettySize=auto;html=1;exitX=0.5;exitY=1;exitDx=0;exitDy=0;entryX=0.5;entryY=0;entryDx=0;entryDy=0;fontSize=16;" edge="1" parent="1" source="rKvsoHjesG3bYA3_DGz0-1" target="rKvsoHjesG3bYA3_DGz0-2">
          <mxGeometry relative="1" as="geometry" />
        </mxCell>
        <mxCell id="rKvsoHjesG3bYA3_DGz0-1" value="接口层" style="rounded=0;whiteSpace=wrap;html=1;fontSize=16;fillColor=#fff2cc;strokeColor=#d6b656;" vertex="1" parent="1">
          <mxGeometry x="190" y="120" width="170" height="60" as="geometry" />
        </mxCell>
        <mxCell id="rKvsoHjesG3bYA3_DGz0-6" style="edgeStyle=orthogonalEdgeStyle;rounded=0;orthogonalLoop=1;jettySize=auto;html=1;exitX=1;exitY=0.5;exitDx=0;exitDy=0;entryX=0;entryY=0.5;entryDx=0;entryDy=0;fontSize=16;" edge="1" parent="1" source="rKvsoHjesG3bYA3_DGz0-2" target="rKvsoHjesG3bYA3_DGz0-4">
          <mxGeometry relative="1" as="geometry" />
        </mxCell>
        <mxCell id="rKvsoHjesG3bYA3_DGz0-11" style="edgeStyle=orthogonalEdgeStyle;rounded=0;orthogonalLoop=1;jettySize=auto;html=1;exitX=0.5;exitY=1;exitDx=0;exitDy=0;entryX=0.5;entryY=0;entryDx=0;entryDy=0;fontSize=16;" edge="1" parent="1" source="rKvsoHjesG3bYA3_DGz0-2" target="rKvsoHjesG3bYA3_DGz0-3">
          <mxGeometry relative="1" as="geometry" />
        </mxCell>
        <mxCell id="rKvsoHjesG3bYA3_DGz0-2" value="业务逻辑层" style="rounded=0;whiteSpace=wrap;html=1;fontSize=16;fillColor=#dae8fc;strokeColor=#6c8ebf;" vertex="1" parent="1">
          <mxGeometry x="190" y="250" width="170" height="60" as="geometry" />
        </mxCell>
        <mxCell id="rKvsoHjesG3bYA3_DGz0-7" style="edgeStyle=orthogonalEdgeStyle;rounded=0;orthogonalLoop=1;jettySize=auto;html=1;exitX=1;exitY=0.5;exitDx=0;exitDy=0;entryX=-0.025;entryY=0.906;entryDx=0;entryDy=0;entryPerimeter=0;fontSize=16;" edge="1" parent="1" source="rKvsoHjesG3bYA3_DGz0-3" target="rKvsoHjesG3bYA3_DGz0-4">
          <mxGeometry relative="1" as="geometry" />
        </mxCell>
        <mxCell id="rKvsoHjesG3bYA3_DGz0-3" value="数据访问层" style="rounded=0;whiteSpace=wrap;html=1;fontSize=16;fillColor=#e1d5e7;strokeColor=#9673a6;" vertex="1" parent="1">
          <mxGeometry x="190" y="380" width="170" height="60" as="geometry" />
        </mxCell>
        <mxCell id="rKvsoHjesG3bYA3_DGz0-4" value="实体层" style="rounded=0;whiteSpace=wrap;html=1;fontSize=16;fillColor=#f5f5f5;strokeColor=#666666;fontColor=#333333;" vertex="1" parent="1">
          <mxGeometry x="430" y="120" width="80" height="320" as="geometry" />
        </mxCell>
      </root>
    </mxGraphModel>
  </diagram>
</mxfile>
